<?xml version="1.0" encoding="utf-8"?>
<!-- Generator: Adobe Illustrator 22.1.0, SVG Export Plug-In . SVG Version: 6.00 Build 0)  -->
<svg version="1.1" xmlns="http://www.w3.org/2000/svg" xmlns:xlink="http://www.w3.org/1999/xlink" x="0px" y="0px"
	 viewBox="0 552 1242 1104" style="enable-background:new 0 0 1242 2208;" xml:space="preserve">
<style type="text/css">
	.st0{fill:#417087;}
	.st1{opacity:0.31;fill:url(#SVGID_1_);}
	.st2{fill:#F2A344;}
	.st3{fill:#FFFFFF;}
	.st4{fill:none;stroke:#0A2733;stroke-width:2;stroke-linecap:round;stroke-miterlimit:10;}
	.st5{fill:#B75555;}
	.st6{fill:#D3623C;}
	.st7{fill:#F2AB6B;}
	.st8{fill:none;stroke:#FFFFFF;stroke-width:10;stroke-miterlimit:10;}
	.st9{opacity:0.1;}
</style>
<g id="图层_1">
</g>
<g id="circle">
</g>
<g id="cake">
	<g>
		<path class="st0" d="M1098,1104c0,19.3-1.2,38.4-3.5,57.1c-0.6,5-1.3,9.9-2.1,14.8c-18.2,115.3-79.4,216.6-167.2,287.8
			c-4.1,3.4-8.3,6.7-12.6,9.9C832,1534.6,730.8,1571,621,1571c-263.4,0-477-209.1-477-467s213.6-467,477-467S1098,846.1,1098,1104z"
			/>
		<g>
			<linearGradient id="SVGID_1_" gradientUnits="userSpaceOnUse" x1="971.4335" y1="1421.1135" x2="549.32" y2="999">
				<stop  offset="0" style="stop-color:#000000;stop-opacity:0"/>
				<stop  offset="0.1331" style="stop-color:#000000;stop-opacity:3.992333e-02"/>
				<stop  offset="1" style="stop-color:#000000;stop-opacity:0.3"/>
			</linearGradient>
			<path class="st1" d="M1092.4,1175.9c-18.2,115.3-79.4,216.6-167.2,287.8c-4.1,3.4-8.3,6.7-12.6,9.9l-498.9-244l123.1-27.7
				l7.9-22.3l0.3-1l4.9-14l1.1-3l13-37l17.8-50.4l19.2-54.5v0L613,986l1.9-5.5l0.2-0.4l0.6-4.9l0.3-2.9v0l1-7.8l0.3-2.9l1-7.8
				l0.3-2.9l1-7.8l0.4-2.9l0.9-7.8l0.4-2.9l0.4-3l0.2,0.1h0L1092.4,1175.9z"/>
			<g>
				<path class="st2" d="M622.9,913.5c0,4.2-3.5,7.6-7.8,7.6s-7.8-3.4-7.8-7.6s1.9-15.1,10.5-17.9
					C616.2,904.3,622.9,909.3,622.9,913.5z"/>
				<path class="st3" d="M619.6,916.7c0,2.5-2,4.5-4.6,4.5s-4.6-2-4.6-4.5s1.1-8.8,6.1-10.5C615.7,911.3,619.6,914.2,619.6,916.7z"
					/>
			</g>
			<polyline class="st4" points="615,929.3 615,925.5 615,919.7 			"/>
			<g>
				<path class="st5" d="M621.8,926.9v57.8c0,0.8-0.6,1.4-1.4,1.4h-10.8c-0.8,0-1.4-0.6-1.4-1.4v-57.8c0-0.8,0.6-1.4,1.4-1.4h10.8
					C621.1,925.5,621.8,926.1,621.8,926.9z"/>
				<polygon class="st3" points="621.8,929.6 621.8,932.4 615,933.3 608.1,934.2 608.1,931.4 615,930.5 				"/>
				<polygon class="st3" points="621.8,940.1 621.8,942.9 615,943.8 608.1,944.7 608.1,941.9 				"/>
				<polygon class="st3" points="621.8,950.6 621.8,953.5 615,954.4 608.1,955.2 608.1,952.4 615,951.5 				"/>
				<polygon class="st3" points="621.8,961.2 621.8,964 608.1,965.8 608.1,962.9 615,962 				"/>
				<polygon class="st3" points="621.8,971.7 621.8,974.5 615,975.4 608.1,976.3 608.1,973.5 615,972.6 				"/>
			</g>
			<rect x="413.8" y="1202" class="st6" width="402.4" height="27.7"/>
			<path class="st7" d="M781.6,1092v110H448.4v-110c0-9.8,8.1-17.7,18.1-17.7h297.1C773.5,1074.3,781.6,1082.2,781.6,1092z"/>
			<path class="st7" d="M715.9,997.9v76.4H514v-76.4c0-9.8,8.1-17.8,18.1-17.8h165.6C707.8,980.1,715.9,988.1,715.9,997.9z"/>
			<g>
				<path class="st3" d="M785.1,1092v21.2c0,3-1.4,5.4-3.5,6.8c-3.6,2.6-9.2,2.4-12.3-1.9c-0.2-0.2-0.5-0.7-0.5-0.7s-1.5-1.8-2.6-2
					c-1.1-0.3-2.2,0.1-3.2,0.5c-4.5,1.7-8.7,4-12.4,6.9c-4.9,3.7-9.2,8.3-14.9,10.8c-13.4,6-29.9-2.1-38.1-13.9
					c-2.9-4.2-6.3-9.4-11.5-9c-6.3,0.5-8.1,8.2-10.8,13.6c-3.4,6.8-10.7,11.6-18.5,12.3c-7.8,0.6-15.9-2.9-20.4-9.1
					c-2.7-3.6-4.5-8.3-8.7-10.2c-3.1-1.4-6.8-0.9-10,0.1c-0.9,0.3-1.8,0.6-2.7,1c-7.3,2.9-13.7,7.9-20.9,11.3
					c-8,3.8-18.5,5.4-25.4,0c-6.2-4.8-8.2-14.1-15.6-17c-6-2.4-12.9,0.7-17.9,4.7c-5,4-9.3,9.1-15.2,11.6
					c-9.2,3.9-20.3,0.5-28.1-5.6c-4.5-3.5-8.4-8-13.9-9.6c-7-2.1-14.5,1-20.7,4.8c-1.6,1-3.1,2-4.7,3c-1.3,0.8-2.8,1-4.1,0.6
					c-1.9-0.6-3.5-2.3-3.5-4.6V1092c0-9.8,8.3-17.7,18.4-17.7h303.3C776.8,1074.3,785.1,1082.2,785.1,1092z"/>
			</g>
			<g>
				<g>
					<path class="st3" d="M718.7,997.9v29.3c0,2-1.2,3.7-2.9,4.5c-1.1,0.5-2.5,0.7-3.8,0.2c-0.9-0.3-1.7-0.7-2.5-1.1
						c-5.5-3.1-8.1-9-12.2-13.6c-4-4.6-11.7-7.9-16.5-4.1c-1.5,1.2-2.4,2.9-3.3,4.5c-2.9,5.5-6.8,12.1-13.4,12.4
						c-5.5,0.3-9.8-4-13.3-8c-3.6-4-7.2-8.1-10.9-12.1c-0.8-0.9-1.7-1.8-2.8-1.8c-1.4-0.1-2.5,1.1-3.3,2.1
						c-3.7,5-5.4,11.5-10.6,15.2c-2.3,1.6-5.2,2.5-8.2,2.5c-2.6,0-5.2-0.6-7.4-1.9c-4.1-2.4-6.5-6.6-9.7-10.1
						c-3.1-3.5-7.9-6.5-12.6-5.1c-4.7,1.4-6.7,6.5-9.4,10.3c-2.1,3-5,5.6-8.4,7.4c-2.5,1.4-5.4,2.3-8.4,2.1
						c-6.1-0.5-10.2-5.8-13.9-10.3c-3.7-4.6-8.9-9.3-14.9-8.4c-4.9,0.8-8.1,5.1-11.7,8.3c-1.4,1.2-3,2.3-4.7,3.2c0,0,0,0,0,0
						c0,0,0,0,0,0c-1.3,0.7-2.9-0.3-2.9-1.7v-23.8c0-9.8,8.5-17.8,18.9-17.8h170.2C710.5,980.1,718.7,988.1,718.7,997.9z"/>
				</g>
			</g>
			<line class="st8" x1="781.6" y1="1161.7" x2="448.4" y2="1161.7"/>
			<line class="st8" x1="781.6" y1="1179.7" x2="448.4" y2="1179.7"/>
			<path class="st9" d="M816.2,1202v27.7H615V925.5h5.4c0.8,0,1.4,0.6,1.4,1.4v53.3h78.6c10.2,0,18.4,7.9,18.4,17.8v29.3
				c0,2-1.2,3.7-2.9,4.5v42.6h50.7c10.2,0,18.4,7.9,18.4,17.7v21.2c0,3-1.4,5.4-3.5,6.8v82H816.2z"/>
		</g>
	</g>
</g>
</svg>
